<?xml version="1.0" standalone="no"?>
<!DOCTYPE svg PUBLIC "-//W3C//DTD SVG 20010904//EN"
 "http://www.w3.org/TR/2001/REC-SVG-20010904/DTD/svg10.dtd">
<svg version="1.0" xmlns="http://www.w3.org/2000/svg"
 width="512.000000pt" height="512.000000pt" viewBox="0 0 512.000000 512.000000"
 preserveAspectRatio="xMidYMid meet">

<g transform="translate(0.000000,512.000000) scale(0.100000,-0.100000)"
fill="#000000" stroke="none">
<path d="M2160 3188 l0 -333 21 45 c27 60 54 88 114 116 45 22 63 24 197 24
81 0 170 5 198 11 101 22 181 115 183 216 3 89 -2 94 -110 136 -156 61 -326
98 -520 112 l-83 5 0 -332z"/>
<path d="M4124 3350 c-48 -11 -74 -33 -255 -217 -138 -139 -169 -176 -178
-211 -15 -55 -1 -111 40 -151 38 -39 83 -51 187 -51 l83 0 -3 -272 c-3 -299
-2 -294 -67 -344 -25 -18 -50 -19 -771 -21 -618 -2 -737 0 -698 11 155 42 222
223 132 358 -36 56 -91 88 -171 100 -139 21 -199 57 -239 143 l-24 50 0 -332
0 -333 -982 -2 -983 -3 -35 -22 c-99 -61 -99 -205 0 -266 l35 -22 1810 -3
c1220 -2 1836 1 1890 8 218 28 384 190 415 405 5 39 10 177 10 308 l0 237 83
0 c103 0 148 12 186 51 41 40 55 96 40 151 -9 36 -40 72 -183 216 -94 95 -184
181 -201 191 -38 23 -81 30 -121 21z"/>
<path d="M2585 1591 c-110 -27 -179 -116 -179 -231 0 -138 82 -219 239 -239
97 -12 157 -47 200 -115 27 -44 30 -58 30 -126 0 -68 -3 -82 -30 -126 -19 -30
-49 -60 -79 -79 l-49 -30 -279 -3 -278 -3 0 -240 0 -240 83 6 c196 15 365 51
517 110 553 213 953 702 1054 1288 l7 37 -603 -1 c-332 -1 -616 -4 -633 -8z"/>
</g>
</svg>
